<svg width="36" height="36" viewBox="0 0 36 36" fill="none" xmlns="http://www.w3.org/2000/svg">
<path d="M18.0001 32.43C17.7792 32.4293 17.5647 32.3555 17.3901 32.22C11.8301 27.9 8.00011 24.18 5.32011 20.51C1.90011 15.82 1.12011 11.49 3.00011 7.63999C4.34011 4.88999 8.19011 2.63999 12.6901 3.94999C14.8357 4.56973 16.7076 5.89878 18.0001 7.71999C19.2926 5.89878 21.1646 4.56973 23.3101 3.94999C27.8001 2.65999 31.6601 4.88999 33.0001 7.63999C34.8801 11.49 34.1001 15.82 30.6801 20.51C28.0001 24.18 24.1701 27.9 18.6101 32.22C18.4356 32.3555 18.2211 32.4293 18.0001 32.43ZM10.1301 5.57999C9.05936 5.53832 7.99748 5.78904 7.05846 6.30524C6.11943 6.82144 5.33871 7.58363 4.80011 8.50999C3.25011 11.69 3.95011 15.23 6.94011 19.32C10.1177 23.4186 13.8385 27.0654 18.0001 30.16C22.161 27.0685 25.8818 23.425 29.0601 19.33C32.0601 15.23 32.7501 11.69 31.2001 8.51999C30.2001 6.51999 27.2001 4.92999 23.8601 5.86999C22.7892 6.1865 21.7963 6.72371 20.9455 7.44707C20.0947 8.17043 19.4048 9.0639 18.9201 10.07C18.8448 10.2534 18.7166 10.4103 18.5519 10.5207C18.3872 10.6311 18.1934 10.69 17.9951 10.69C17.7968 10.69 17.603 10.6311 17.4383 10.5207C17.2736 10.4103 17.1455 10.2534 17.0701 10.07C16.5891 9.06138 15.9003 8.16582 15.049 7.44201C14.1977 6.71821 13.203 6.18249 12.1301 5.86999C11.4801 5.6812 10.807 5.5836 10.1301 5.57999Z" fill="#6E0AD6"/>
</svg>
