<svg width="138" height="50" viewBox="0 0 138 50" fill="none" xmlns="http://www.w3.org/2000/svg">
<path d="M15.2894 40.9048C14.0331 40.9048 12.9053 40.8476 11.906 40.7333C10.9353 40.619 9.86459 40.4048 8.69397 40.0905C7.38059 39.7476 6.29563 39.3048 5.43907 38.7619C4.58252 38.1905 3.86873 37.4048 3.29769 36.4048C2.69811 35.4048 2.39832 34.219 2.39832 32.8476V20.6333C2.39832 15.0333 6.69535 12.2333 15.2894 12.2333C17.4879 12.2333 20.4287 12.5476 24.1119 13.1762V18.1905C20.7999 17.3905 17.8876 16.9905 15.3751 16.9905C14.3187 16.9905 13.4907 17.0191 12.8911 17.0762C12.32 17.1333 11.7205 17.2762 11.0923 17.5048C9.75038 17.9619 9.07942 18.9762 9.07942 20.5476V32.3762C9.07942 34.8905 11.3778 36.1476 15.9747 36.1476C17.9447 36.1476 20.7142 35.7333 24.2832 34.9048V39.9619C21.2282 40.5905 18.2302 40.9048 15.2894 40.9048Z" fill="#4D4949"/>
<path d="M28.9134 10.4762H35.1662V22.2619C35.5659 20.2905 37.7501 19.3048 41.7188 19.3048C44.3742 19.3048 46.23 19.7905 47.2864 20.7619C48.3714 21.7048 48.9139 23.2048 48.9139 25.2619V40.4762H42.661V25.9905C42.661 25.1905 42.5754 24.6048 42.4041 24.2333C42.2613 23.8333 41.9615 23.5619 41.5047 23.4191C41.0479 23.2476 40.3198 23.1619 39.3205 23.1619C38.0928 23.1619 37.1934 23.2333 36.6224 23.3762C36.0513 23.5191 35.6659 23.7905 35.466 24.1905C35.2661 24.5619 35.1662 25.1619 35.1662 25.9905V40.4762H28.9134V10.4762Z" fill="#4D4949"/>
<path fill-rule="evenodd" clip-rule="evenodd" d="M67.324 19.2148C66.3466 18.8911 64.8873 18.7484 62.9463 18.7866C60.6341 18.8321 59.0675 19.0486 58.2472 19.4363C57.4258 19.7954 56.7808 20.3939 56.3118 21.2319L56.2747 19.3465L50.1516 19.467L50.4321 33.7357C50.4685 35.5924 50.8104 37.0002 51.4576 37.9593C52.1045 38.9181 53.16 39.5831 54.6237 39.9543C56.0589 40.3262 58.1039 40.486 60.7585 40.4338C63.7845 40.3743 66.4222 40.1795 68.6719 39.8495L68.5943 35.9074C65.5181 36.3107 63.095 36.53 61.325 36.5648C60.0404 36.59 59.0825 36.5231 58.4513 36.364C57.7913 36.2057 57.343 35.9145 57.106 35.4905C56.8407 35.0669 56.6994 34.4124 56.682 33.5269L56.6542 32.1129L63.6765 31.9748C65.3037 31.9426 66.584 31.7031 67.5177 31.2562C68.4232 30.8383 69.0809 30.1538 69.4906 29.2026C69.8718 28.2521 70.0459 26.9486 70.0136 25.2917C69.9769 23.4349 69.764 22.0388 69.3742 21.1034C68.9567 20.1971 68.2733 19.5676 67.324 19.2148ZM57.8872 22.9155C58.4277 22.8191 59.3262 22.7585 60.5822 22.7338C61.6384 22.713 62.3817 22.7556 62.8121 22.8614C63.214 22.9678 63.49 23.2053 63.6401 23.5738C63.79 23.9424 63.8742 24.5981 63.8928 25.5407C63.9118 26.5119 63.8538 27.1845 63.7184 27.5588C63.5835 27.9614 63.3172 28.224 62.9199 28.3462C62.523 28.4967 61.8394 28.5817 60.8687 28.6007L56.5869 28.685L56.5076 24.6571C56.4998 24.2574 56.5509 23.9562 56.6613 23.754C56.7703 23.4947 56.9095 23.3062 57.0784 23.1886C57.2191 23.0715 57.4886 22.9805 57.8872 22.9155ZM73.2399 40.3905C74.2107 40.7333 75.6668 40.9048 77.6083 40.9048C79.921 40.9048 81.4914 40.719 82.3194 40.3476C83.1474 40.0048 83.804 39.419 84.2894 38.5905V40.4762H90.4138V26.2048C90.4138 24.3476 90.0997 22.9333 89.4716 21.9619C88.8434 20.9905 87.8013 20.3048 86.3451 19.9048C84.9176 19.5048 82.8761 19.3048 80.2208 19.3048C77.1943 19.3048 74.5533 19.4476 72.2977 19.7333V23.6762C75.3813 23.3333 77.8082 23.1619 79.5784 23.1619C80.8632 23.1619 81.8197 23.2476 82.4478 23.419C83.1045 23.5905 83.5471 23.8905 83.7755 24.319C84.0325 24.7476 84.1609 25.4048 84.1609 26.2905V27.7048H77.1372C75.5098 27.7048 74.2249 27.919 73.2827 28.3476C72.3691 28.7476 71.6981 29.419 71.2698 30.3619C70.8701 31.3048 70.6702 32.6048 70.6702 34.2619C70.6702 36.119 70.8558 37.519 71.227 38.4619C71.6267 39.3762 72.2977 40.019 73.2399 40.3905ZM82.7476 36.8762C82.2051 36.9619 81.3058 37.0048 80.0495 37.0048C78.9931 37.0048 78.2507 36.9476 77.8225 36.8333C77.4227 36.719 77.1515 36.4762 77.0087 36.1048C76.866 35.7333 76.7946 35.0762 76.7946 34.1333C76.7946 33.1619 76.866 32.4905 77.0087 32.119C77.1515 31.719 77.4227 31.4619 77.8225 31.3476C78.2222 31.2048 78.9074 31.1333 79.8782 31.1333H84.1609V35.1619C84.1609 35.5619 84.1038 35.8619 83.9896 36.0619C83.8754 36.319 83.7327 36.5048 83.5614 36.619C83.4186 36.7333 83.1474 36.819 82.7476 36.8762Z" fill="#4D4949"/>
<path d="M93.1548 19.7333H99.065V21.7905C99.4362 20.8762 100.164 20.2333 101.249 19.8619C102.334 19.4905 103.947 19.3047 106.089 19.3047C107.887 19.3047 109.329 19.4476 110.414 19.7333C111.528 20.019 112.37 20.4762 112.941 21.1047C113.484 21.7333 113.855 22.4333 114.055 23.2047C114.255 23.9476 114.354 24.9762 114.354 26.2905V33.1047C114.354 35.1619 114.055 36.7476 113.455 37.8619C112.855 38.9762 111.928 39.7619 110.671 40.219C109.444 40.6762 107.759 40.9047 105.618 40.9047C103.562 40.9047 102.077 40.7333 101.164 40.3905C100.25 40.0476 99.6646 39.3762 99.4076 38.3762V49.3905H93.1548V19.7333ZM103.69 37.0047C104.918 37.0047 105.846 36.919 106.474 36.7476C107.102 36.5762 107.531 36.2762 107.759 35.8476C107.987 35.419 108.102 34.7762 108.102 33.919V26.2476C108.102 25.3047 108.002 24.6333 107.802 24.2333C107.602 23.8047 107.202 23.519 106.603 23.3762C106.003 23.2333 105.018 23.1619 103.648 23.1619C102.477 23.1619 101.578 23.2619 100.949 23.4619C100.35 23.6619 99.9358 23.9762 99.7074 24.4047C99.5075 24.8333 99.4076 25.4476 99.4076 26.2476V33.919C99.4076 34.7762 99.5075 35.419 99.7074 35.8476C99.9358 36.2762 100.35 36.5762 100.949 36.7476C101.549 36.919 102.463 37.0047 103.69 37.0047Z" fill="#4D4949"/>
<path d="M122.815 40.3048L114.55 19.7333H121.359L126.027 34.3905L130.267 19.7333H136.734L125.385 49.3905H119.046L122.815 40.3048Z" fill="#8FE281"/>
</svg>
