<svg width="45" height="45" viewBox="0 0 45 45" fill="none" xmlns="http://www.w3.org/2000/svg">
<path d="M9.375 37.5C10.4105 37.5 11.25 36.6605 11.25 35.625C11.25 34.5895 10.4105 33.75 9.375 33.75C8.33947 33.75 7.5 34.5895 7.5 35.625C7.5 36.6605 8.33947 37.5 9.375 37.5Z" fill="#6E0AD6"/>
<path d="M7.5 7.5H11.25V24.375H7.5V7.5Z" fill="#6E0AD6"/>
<path d="M13.125 3.75H5.625C5.12772 3.75 4.65081 3.94754 4.29917 4.29917C3.94754 4.65081 3.75 5.12772 3.75 5.625V39.375C3.75 39.8723 3.94754 40.3492 4.29917 40.7008C4.65081 41.0525 5.12772 41.25 5.625 41.25H13.125C13.6223 41.25 14.0992 41.0525 14.4508 40.7008C14.8025 40.3492 15 39.8723 15 39.375V5.625C15 5.12772 14.8025 4.65081 14.4508 4.29917C14.0992 3.94754 13.6223 3.75 13.125 3.75ZM13.125 39.375H5.625V5.625H13.125V39.375Z" fill="#6E0AD6"/>
<path d="M26.25 5.625V18.75H20.625V5.625H26.25ZM28.125 3.75H18.75V20.625H28.125V3.75Z" fill="#6E0AD6"/>
<path d="M39.375 5.625V18.75H33.75V5.625H39.375ZM41.25 3.75H31.875V20.625H41.25V3.75Z" fill="#6E0AD6"/>
<path d="M26.25 26.25V39.375H20.625V26.25H26.25ZM28.125 24.375H18.75V41.25H28.125V24.375Z" fill="#6E0AD6"/>
<path d="M39.375 26.25V39.375H33.75V26.25H39.375ZM41.25 24.375H31.875V41.25H41.25V24.375Z" fill="#6E0AD6"/>
</svg>
