<svg width="45" height="45" viewBox="0 0 45 45" fill="none" xmlns="http://www.w3.org/2000/svg">
<path d="M16.6626 40C18.2159 40 19.4751 38.7408 19.4751 37.1875C19.4751 35.6342 18.2159 34.375 16.6626 34.375C15.1093 34.375 13.8501 35.6342 13.8501 37.1875C13.8501 38.7408 15.1093 40 16.6626 40Z" fill="white"/>
<path d="M33.75 40C35.3033 40 36.5625 38.7408 36.5625 37.1875C36.5625 35.6342 35.3033 34.375 33.75 34.375C32.1967 34.375 30.9375 35.6342 30.9375 37.1875C30.9375 38.7408 32.1967 40 33.75 40Z" fill="white"/>
<path d="M41.3501 6.7125C41.2338 6.56911 41.0872 6.45326 40.9207 6.3733C40.7543 6.29333 40.5722 6.25122 40.3876 6.25H14.3626L15.1751 8.75H38.7501L35.4126 23.75H16.6626L10.9501 5.6625C10.8883 5.47057 10.781 5.29644 10.6374 5.15496C10.4937 5.01348 10.318 4.90885 10.1251 4.85L5.00011 3.275C4.84252 3.22657 4.67694 3.20966 4.51282 3.22523C4.3487 3.2408 4.18925 3.28854 4.04358 3.36573C3.74938 3.52161 3.52916 3.78799 3.43136 4.10625C3.33356 4.42451 3.36619 4.76858 3.52208 5.06278C3.67797 5.35698 3.94435 5.5772 4.26261 5.675L8.75011 7.05L14.4876 25.175L12.4376 26.85L12.2751 27.0125C11.768 27.5969 11.4806 28.3398 11.4624 29.1132C11.4441 29.8867 11.6962 30.6424 12.1751 31.25C12.5158 31.6643 12.9487 31.9932 13.4393 32.2102C13.9298 32.4273 14.4643 32.5265 15.0001 32.5H35.8626C36.1941 32.5 36.5121 32.3683 36.7465 32.1339C36.9809 31.8995 37.1126 31.5815 37.1126 31.25C37.1126 30.9185 36.9809 30.6005 36.7465 30.3661C36.5121 30.1317 36.1941 30 35.8626 30H14.8001C14.6562 29.9951 14.5159 29.9531 14.3929 29.8782C14.2699 29.8032 14.1683 29.6979 14.098 29.5722C14.0276 29.4465 13.9908 29.3048 13.9912 29.1608C13.9916 29.0168 14.0291 28.8753 14.1001 28.75L17.1126 26.25H36.4126C36.7016 26.2571 36.984 26.1638 37.2119 25.986C37.4398 25.8082 37.5991 25.557 37.6626 25.275L41.6251 7.775C41.6631 7.58865 41.6581 7.39608 41.6105 7.21195C41.5628 7.02783 41.4738 6.85701 41.3501 6.7125Z" fill="white"/>
</svg>
