<svg width="27" height="27" viewBox="0 0 27 27" fill="none" xmlns="http://www.w3.org/2000/svg">
<path d="M17.7188 16.875C17.495 16.875 17.2804 16.9639 17.1221 17.1221C16.9639 17.2804 16.875 17.495 16.875 17.7188C16.875 17.9425 16.9639 18.1571 17.1221 18.3154C17.2804 18.4736 17.495 18.5625 17.7188 18.5625H21.0938C21.3175 18.5625 21.5321 18.4736 21.6904 18.3154C21.8486 18.1571 21.9375 17.9425 21.9375 17.7188C21.9375 17.495 21.8486 17.2804 21.6904 17.1221C21.5321 16.9639 21.3175 16.875 21.0938 16.875H17.7188Z" fill="white"/>
<path d="M1.6875 8.4375C1.6875 7.54239 2.04308 6.68395 2.67601 6.05101C3.30895 5.41808 4.16739 5.0625 5.0625 5.0625H21.9375C22.8326 5.0625 23.691 5.41808 24.324 6.05101C24.9569 6.68395 25.3125 7.54239 25.3125 8.4375V18.5625C25.3125 19.4576 24.9569 20.316 24.324 20.949C23.691 21.5819 22.8326 21.9375 21.9375 21.9375H5.0625C4.16739 21.9375 3.30895 21.5819 2.67601 20.949C2.04308 20.316 1.6875 19.4576 1.6875 18.5625V8.4375ZM23.625 8.4375C23.625 7.98995 23.4472 7.56073 23.1307 7.24426C22.8143 6.92779 22.3851 6.75 21.9375 6.75H5.0625C4.61495 6.75 4.18572 6.92779 3.86926 7.24426C3.55279 7.56073 3.375 7.98995 3.375 8.4375V10.125H23.625V8.4375ZM3.375 18.5625C3.375 19.0101 3.55279 19.4393 3.86926 19.7557C4.18572 20.0722 4.61495 20.25 5.0625 20.25H21.9375C22.3851 20.25 22.8143 20.0722 23.1307 19.7557C23.4472 19.4393 23.625 19.0101 23.625 18.5625V11.8125H3.375V18.5625Z" fill="white"/>
</svg>
